# xmcd
#
# Track frame offsets:
#	300
#	18989
#	36722
#	57016
#	75812
#	90572
#	104502
#	122642
#	143634
#	164716
#	182776
#
# Disc length: 2669 seconds
#
# Revision: 0
# Processed by: cddbd v1.5.2PL0 Copyright (c) Steve Scherf et al.
# Submitted via: EasyCDDAExtractor 10.0.2.1
#
DISCID=8d0a690b
DTITLE=Pedro Castillo - Volver Al Futuro
DYEAR=2003
DGENRE=Alternative
TTITLE0=Algo Electrico
TTITLE1=Victoria
TTITLE2=Tiempo
TTITLE3=Mi Amplificador
TTITLE4=Un Momento de Luz
TTITLE5=No Te Pueden Apagar
TTITLE6=No Te Vayas Ahora
TTITLE7=Perdiendo Altura
TTITLE8=Quiero Ser Tu Heroe
TTITLE9=Amarte En Inglaterra (bonus track)
TTITLE10=Mi Querida Bicicleta (bonus track)
EXTD=
EXTT0=
EXTT1=
EXTT2=
EXTT3=
EXTT4=
EXTT5=
EXTT6=
EXTT7=
EXTT8=
EXTT9=
EXTT10=
PLAYORDER=
